# xmcd
#
# Track frame offsets: 
#        182
#        23510
#        41710
#        62020
#        87670
#        118650
#        139867
#        175887
#        197817
#        224945
#        254632
#
# Disc length: 3728 seconds
#
# Revision: 1
# Processed by: cddbd v1.5.2PL0 Copyright (c) Steve Scherf et al.
# Submitted via: ExactAudioCopyFreeDBPlugin 1.0
#
DISCID=ad0e8e0b
DTITLE=Marvin Sease - Show Me What You Got
DYEAR=1991
DGENRE=Soul-Blues
TTITLE0=Missing You
TTITLE1=Two Wrong Shoes
TTITLE2=Greedy Girl
TTITLE3=It's Too Late
TTITLE4=Take Me Back
TTITLE5=We Gotta Make A Plan
TTITLE6=Tonight
TTITLE7=Show Me What You Got
TTITLE8=I Stand Accused
TTITLE9=Love Machine
TTITLE10=Don't "Cum" Now
EXTD=
EXTT0=
EXTT1=
EXTT2=
EXTT3=
EXTT4=
EXTT5=
EXTT6=
EXTT7=
EXTT8=
EXTT9=
EXTT10=
PLAYORDER=
